<svg width="30" height="32" viewBox="0 0 30 32" fill="none" xmlns="http://www.w3.org/2000/svg">
<path fill-rule="evenodd" clip-rule="evenodd" d="M12.3466 2.71533C8.65966 2.71533 5.69908 5.76216 5.69908 9.55753C5.69908 13.352 8.66006 16.3997 12.3466 16.3997C16.0339 16.3997 18.9941 13.3524 18.9941 9.55753C18.9941 5.76175 16.0343 2.71533 12.3466 2.71533ZM12.3466 4.64525C14.9988 4.64525 17.1191 6.82762 17.1191 9.55753C17.1191 12.2866 14.9983 14.4698 12.3466 14.4698C9.69559 14.4698 7.57408 12.2862 7.57408 9.55753C7.57408 6.82809 9.69513 4.64525 12.3466 4.64525ZM12.3467 18.7417C6.05917 18.7417 2.50043 19.9698 2.50043 23.4495C2.50043 26.933 6.07496 28.1842 12.3467 28.1842L13.1511 28.1771C18.9354 28.0731 22.1929 26.804 22.1929 23.4765C22.1929 20.0687 18.7721 18.7972 12.7519 18.7435L12.3467 18.7417ZM12.3467 20.6717C17.5985 20.6717 20.3179 21.6235 20.3179 23.4765C20.3179 25.3179 17.6052 26.2543 12.3467 26.2543C7.09484 26.2543 4.37543 25.3024 4.37543 23.4495C4.37543 21.657 6.94213 20.7229 11.9258 20.6737L12.3467 20.6717ZM24.0049 10.331C24.4795 10.331 24.8718 10.6941 24.9338 11.1651L24.9424 11.296V12.9106H26.5626C27.0803 12.9106 27.5001 13.3426 27.5001 13.8755C27.5001 14.364 27.1474 14.7678 26.6898 14.8317L26.5626 14.8405H24.9424V16.4553C24.9424 16.9882 24.5227 17.4203 24.0049 17.4203C23.5303 17.4203 23.138 17.0572 23.076 16.5862L23.0674 16.4553V14.8405H21.4501C20.9323 14.8405 20.5126 14.4084 20.5126 13.8755C20.5126 13.387 20.8653 12.9833 21.3229 12.9194L21.4501 12.9106H23.0674V11.296C23.0674 10.7631 23.4871 10.331 24.0049 10.331Z" fill="#333333"/>
</svg>
