<svg width="9" height="6" viewBox="0 0 9 6" fill="none" xmlns="http://www.w3.org/2000/svg">
<path d="M0.749989 0.625019C0.896022 0.624734 1.03754 0.675593 1.14999 0.768769L4.49999 3.56877L7.85624 0.86877C7.92017 0.816854 7.99373 0.778084 8.07269 0.754689C8.15165 0.731294 8.23446 0.723736 8.31635 0.732448C8.39825 0.74116 8.47761 0.76597 8.54988 0.805454C8.62216 0.844937 8.68591 0.898315 8.73749 0.96252C8.78941 1.02645 8.82818 1.10001 8.85157 1.17897C8.87497 1.25793 8.88252 1.34074 8.87381 1.42263C8.8651 1.50453 8.84029 1.58389 8.80081 1.65616C8.76132 1.72844 8.70794 1.79219 8.64374 1.84377L4.89374 4.86252C4.78191 4.95445 4.64163 5.0047 4.49686 5.0047C4.3521 5.0047 4.21182 4.95445 4.09999 4.86252L0.349989 1.73752C0.286703 1.68505 0.234388 1.62061 0.196043 1.5479C0.157698 1.47518 0.134075 1.39561 0.126527 1.31375C0.11898 1.23189 0.127657 1.14935 0.15206 1.07084C0.176463 0.992341 0.216112 0.919424 0.268738 0.856269C0.326897 0.784573 0.400217 0.726652 0.483427 0.686668C0.566638 0.646683 0.657672 0.62563 0.749989 0.625019Z" fill="#4F4F4F"/>
</svg>
