<svg width="26" height="26" viewBox="0 0 26 26" fill="none" xmlns="http://www.w3.org/2000/svg">
<path fill-rule="evenodd" clip-rule="evenodd" d="M1.59729 0.460766L1.47048 0.447115C1.009 0.429751 0.594585 0.765659 0.513643 1.24702L0.500381 1.37755C0.483511 1.85254 0.80986 2.2791 1.27753 2.36241L3.16378 2.6982L4.30694 16.7168L4.3306 16.9275C4.5606 18.526 5.89641 19.7278 7.48741 19.7278H21.1274L21.3328 19.721C22.8282 19.6227 24.0682 18.4587 24.2864 16.9124L25.4727 8.47433L25.4932 8.2805C25.6024 6.73776 24.415 5.3988 22.8862 5.3988H5.26503L4.97162 1.79406L4.94951 1.65143C4.86396 1.28047 4.57098 0.990517 4.19729 0.923946L1.59729 0.460766ZM7.34231 17.7897C6.72322 17.72 6.22811 17.2083 6.17523 16.5558L5.42235 7.32871H22.886L22.9962 7.33705C23.3909 7.39745 23.676 7.77734 23.6169 8.19801L22.4306 16.6355L22.4009 16.7864C22.2504 17.3764 21.7311 17.7979 21.1272 17.7979H7.48723L7.34231 17.7897ZM5.38533 23.7154C5.38533 22.6396 6.23242 21.7662 7.27783 21.7662C8.3231 21.7662 9.17158 22.6395 9.17158 23.7154C9.17158 24.7914 8.32296 25.6633 7.27783 25.6633C6.23256 25.6633 5.38533 24.7913 5.38533 23.7154ZM19.4497 23.7154C19.4497 22.6395 20.2982 21.7662 21.3435 21.7662C22.3887 21.7662 23.2372 22.6395 23.2372 23.7154C23.2372 24.7914 22.3886 25.6633 21.3435 25.6633C20.2983 25.6633 19.4497 24.7914 19.4497 23.7154ZM20.0604 11.1191C20.0604 10.5861 19.6406 10.1541 19.1229 10.1541H15.6566L15.5294 10.1629C15.0718 10.2268 14.7191 10.6305 14.7191 11.1191C14.7191 11.652 15.1389 12.084 15.6566 12.084H19.1229L19.2501 12.0752C19.7077 12.0113 20.0604 11.6076 20.0604 11.1191Z" fill="#333333"/>
</svg>
